<?xml version="1.0" encoding="UTF-8"?><svg xmlns="http://www.w3.org/2000/svg" xmlns:xlink="http://www.w3.org/1999/xlink" height="366.2" id="Layer_2" preserveAspectRatio="xMidYMid meet" version="1.1" viewBox="-0.1 0.0 501.1 366.2" width="501.1" x="0" xml:space="preserve" y="0" zoomAndPan="magnify"><g><linearGradient gradientUnits="userSpaceOnUse" id="SVGID_3_" x1="278.515" x2="245.926" xlink:actuate="onLoad" xlink:show="other" xlink:type="simple" xmlns:xlink="http://www.w3.org/1999/xlink" y1="330.809" y2="118.151"><stop offset="0" stop-color="#4f9ff5"/><stop offset="1" stop-color="#83dd99"/></linearGradient><path d="M29.7089787,5.221622l373.7080383-4.1321812 c10.9373474-0.1209369,20.5368958,7.2586374,23.2320251,17.8594131l63.2375488,250.2973328 c2.6584473,10.4565125-4.0486145,20.9899597-14.6479492,23.0047607L98.7405472,363.8177185 c-12.6601868,2.4065247-24.8756561-5.9008484-27.2905197-18.5594482L11.2030401,27.8451328 C8.9788599,16.1860619,17.8403797,5.3528557,29.7089787,5.221622z" fill="url(#SVGID_3_)"/><linearGradient gradientUnits="userSpaceOnUse" id="SVGID_4_" x1="73.805" x2="406.394" xlink:actuate="onLoad" xlink:show="other" xlink:type="simple" xmlns:xlink="http://www.w3.org/1999/xlink" y1="341.375" y2="-5.244"><stop offset="0" stop-color="#f85d98"/><stop offset="1" stop-color="#faad44"/></linearGradient><path d="M38.2091751,5.1294756L411.9172363,0.997295 c10.9373169-0.1209369,20.5368958,7.2586379,23.2320251,17.8594131l63.2652588,248.8420868 c2.6584473,10.4564819-4.048584,20.9899597-14.6479492,23.0047302l-376.4981079,71.5667725 c-12.6601868,2.4065247-24.8756561-5.9008484-27.2905121-18.5594482L19.7032356,27.7529869 C17.4790573,16.0939159,26.3405743,5.2607098,38.2091751,5.1294756z" fill="url(#SVGID_4_)"/><linearGradient gradientUnits="userSpaceOnUse" id="SVGID_6_" x1="467.252" x2="416.305" xlink:actuate="onLoad" xlink:show="other" xlink:type="simple" xmlns:xlink="http://www.w3.org/1999/xlink" y1="139.003" y2="147.264"><stop offset="0" stop-color="#4f9ff5"/><stop offset="1" stop-color="#83dd99"/></linearGradient><path d="M411.2664185,22.6250477l60.8351746,241.905838l-6.3055115,1.0933838L404.5591431,22.783289 L411.2664185,22.6250477z" fill="url(#SVGID_6_)"/><linearGradient gradientUnits="userSpaceOnUse" id="SVGID_7_" x1="19.329" x2="29.233" xlink:actuate="onLoad" xlink:show="other" xlink:type="simple" xmlns:xlink="http://www.w3.org/1999/xlink" y1="166.322" y2="275.81"><stop offset="0" stop-color="#4f9ff5"/><stop offset="1" stop-color="#83dd99"/></linearGradient><path d="M57.8806152,274.1278687l-56.8846092,7.9074707l35.6523438-119.2062073 L57.8806152,274.1278687z" fill="url(#SVGID_7_)"/><g id="change1_1"><path d="M499.3799133,267.4533691l-63.2651062-248.842041C433.319397,7.6173754,423.5042725,0,412.1854553,0 c-0.0924072,0-0.1867371,0.0004863-0.2796326,0.001459l-8.2122803,0.090822c-0.0028076,0-0.0054626-0.0003647-0.0081482-0.0003647 c-0.0924072,0-0.1867371,0.0004863-0.2796326,0.001459l-373.7080688,4.13234 c-5.9521828,0.0661407-11.5279484,2.7463012-15.2970009,7.3542714c-3.7695379,4.6074829-5.2912617,10.6044102-4.1761093,16.4520321 v-0.0009727l25.5141697,134.4225006c-0.0130081,0.0314331-0.0347099,0.0571442-0.0446205,0.090332L0.0418263,281.75 c-0.0972659,0.3248596-0.0223711,0.6769714,0.1984223,0.9342346c0.1906411,0.2217712,0.4673624,0.3472595,0.7557557,0.3472595 c0.045715,0,0.0914299-0.0029297,0.1371449-0.0097351l56.0121841-7.786438l13.32621,70.2097168 c2.2220383,11.6470947,12.4539261,19.7824097,23.9011383,19.7819214c1.5017853-0.0004883,3.0254593-0.1405334,4.5535049-0.4308777 l7.0057526-1.3316956c0.5070648-0.0637207,1.0137558-0.1191406,1.5225143-0.2158203l376.4981079-71.5667419 c5.3987427-1.0261536,9.997467-4.1440125,12.9494934-8.7796936 C499.8540955,278.2664185,500.7338562,272.7796631,499.3799133,267.4533691z M483.3877258,289.7615967l-2.6015015,0.4944763 L107.082901,361.2915955c-0.5674286,0.1078491-1.1334534,0.1857605-1.6982651,0.249115 c-11.4790726,1.2867737-22.2284698-6.4866028-24.4283142-18.0166931L20.6816406,27.5661163 c-1.0047569-5.2664604,0.3662052-10.6671467,3.7607841-14.817481c3.3945789-4.149847,8.4164162-6.5639858,13.77771-6.6233182 l365.4776611-4.0408487l6.4740295-0.0716121l1.7563782-0.0193924c0.0860901-0.0009726,0.1707153-0.0014589,0.2567749-0.0014589 c0.372406,0,0.7384949,0.0286933,1.1071472,0.0464443c9.9310608,0.478548,18.4146118,7.3188906,20.8919678,17.0640793 l63.2651062,248.8420563c1.2172852,4.7879028,0.4265137,9.7202454-2.2273865,13.8876038 c-2.6534119,4.1673584-6.7876892,6.9700928-11.6407776,7.8926392L483.3877258,289.7615967z M72.4285355,345.0725098 L12.1815777,27.6594906c0-0.0004864,0-0.0004864,0-0.0009727c-1.004756-5.2664585,0.3662062-10.6676311,3.7607841-14.8174801 c3.3447304-4.0888739,8.2711239-6.4813704,13.543602-6.6078773c-2.5095196,1.2493196-4.7603741,3.0234485-6.5852032,5.2544236 c-3.769537,4.6079702-5.2912617,10.6044092-4.1761093,16.452034L78.9993286,343.897522 c1.8588715,9.7415466,9.3274307,17.005249,18.4171677,19.1280212 C85.7306747,364.6366882,74.6632767,356.7888489,72.4285355,345.0725098z M2.3946874,280.8356934l34.0396461-113.8141785 l20.2716599,106.263916L2.3946874,280.8356934z M412.2321472,22.3823318 c-0.1133118-0.4517994-0.5320435-0.7859077-0.9891968-0.7528381l-6.7069702,0.1580582 c-0.0002441,0-0.0003662,0.0001221-0.0004883,0.0001221L46.2319221,30.2384949 c-0.2927704,0.0068092-0.5675468,0.1420078-0.7513809,0.3700962c-0.1843185,0.227602-0.2587242,0.5247498-0.2037697,0.81217 l56.8178482,297.2886963c0.0914307,0.476593,0.5082169,0.8092346,0.9775238,0.8092346 c0.0564117,0,0.1138-0.0048523,0.1711884-0.0145874l369.0286255-63.9916687 c0.2728271-0.0471802,0.5140381-0.2062073,0.6647949-0.4386902c0.0756226-0.1162109,0.1252441-0.2454529,0.1474915-0.3792725 c0.0222473-0.1337891,0.0171204-0.2721558-0.0166626-0.4066162L412.2321472,22.3823318z M466.535675,264.485321 L405.8301086,23.7495251V23.749403l4.6643982-0.1099091l60.3796997,240.0934753L466.535675,264.485321z M453.7544556,146.0704498 c1.346405,0,2.6147461-0.3896637,3.7054749-1.1040192c0.300293-0.1966553,0.5910034-0.4107666,0.8613892-0.6569061 c0.1760559-0.1601868,0.3456726-0.3302307,0.5075073-0.5107117c0.1060181-0.1182404,0.1985168-0.2480927,0.2966614-0.3731384 c1.3223267-1.6845245,1.9371643-3.9644318,1.6768494-6.3489075c-0.3783569-3.4708099-2.5116577-6.4685974-5.2748413-7.8922119 c-0.3747253-0.1930695-0.757843-0.3648071-1.1529846-0.4969025c-0.3580322-0.1195831-0.7248535-0.203598-1.095459-0.2688141 c-0.4105835-0.0722198-0.8256531-0.1203156-1.2462158-0.1203156c-1.9584351,0-3.7602844,0.8068237-5.0738525,2.2711639 c-1.5343628,1.710907-2.2536621,4.161026-1.9740295,6.7230072 C445.5126343,142.1326447,449.4465637,146.0704498,453.7544556,146.0704498z M452.0328369,130.2905273 c0.6135254,0,1.217041,0.1084595,1.7967529,0.3073578c0.4009705,0.1375122,0.7906494,0.3177032,1.1635437,0.5380707 c0.4527893,0.2675323,0.8773499,0.598175,1.2727356,0.9713745c1.3587952,1.2822113,2.3318176,3.1287384,2.5561218,5.1853638 c0.1307068,1.1966858-0.0149536,2.3499451-0.3965759,3.3620605c-0.179718,0.4767303-0.408783,0.9234161-0.6925354,1.3253021 c-0.1204834,0.1707001-0.2489014,0.3347168-0.3873596,0.4891357c-0.1288757,0.1435852-0.2786865,0.2560425-0.4201965,0.3815155 c-0.880249,0.7812958-1.977417,1.2277374-3.1708679,1.2277374c-3.3226013,0-6.3680115-3.1407013-6.7891541-7.0016785 c-0.2183533-2.0002747,0.3200073-3.8872223,1.4765015-5.1769714 C449.3726196,130.861969,450.6477966,130.2905273,452.0328369,130.2905273z M66.3241272,193.046463 c0.1157455,0.5378723-0.2266235,1.0674896-0.7645111,1.1827545c-0.0705109,0.0150757-0.1410294,0.0223694-0.2100906,0.0223694 c-0.4595795,0-0.8724747-0.319519-0.9726563-0.7868805l-6.7468491-31.4431305 c-0.1157455-0.5378876,0.2266312-1.0675049,0.7645111-1.1827545c0.5388527-0.1138,1.0674934,0.2271118,1.1827507,0.7645111 L66.3241272,193.046463z" fill="#131314"/></g><linearGradient gradientUnits="userSpaceOnUse" id="SVGID_8_" x1="177.989" x2="345.588" xlink:actuate="onLoad" xlink:show="other" xlink:type="simple" xmlns:xlink="http://www.w3.org/1999/xlink" y1="158.228" y2="158.228"><stop offset="0" stop-color="#4f9ff5"/><stop offset="1" stop-color="#83dd99"/></linearGradient><path d="M178.9847412,246.9794006c-0.2456055,0-0.4911957-0.0899658-0.6837769-0.2713623 c-0.399765-0.3778839-0.4182434-1.0081635-0.040863-1.4079285l165.606781-175.5108948 c0.3778992-0.399765,1.008667-0.4172668,1.4084167-0.0408478c0.3997803,0.3778763,0.4182434,1.0081558,0.040863,1.4079208 L179.7093658,246.6671753C179.513382,246.8743591,179.2492981,246.9794006,178.9847412,246.9794006z M274.7322693,219.0174103 l53.1942139-59.4483948c0.3666992-0.4099731,0.3321533-1.0397797-0.0778198-1.4064636 c-0.4099731-0.3676758-1.0402527-0.3321686-1.4064636,0.0778046l-53.1942139,59.44841 c-0.3666687,0.4099731-0.3321533,1.0397644,0.0778198,1.4064636c0.190155,0.1702118,0.4274902,0.2538605,0.6638489,0.2538605 C274.2634583,219.3490906,274.5357971,219.2372437,274.7322693,219.0174103z" fill="url(#SVGID_8_)"/></g></svg>